<?xml version="1.0" standalone="no"?>
<!DOCTYPE svg PUBLIC "-//W3C//DTD SVG 20010904//EN"
 "http://www.w3.org/TR/2001/REC-SVG-20010904/DTD/svg10.dtd">
<svg version="1.0" xmlns="http://www.w3.org/2000/svg"
 width="600.000000pt" height="600.000000pt" viewBox="0 0 600.000000 600.000000"
 preserveAspectRatio="xMidYMid meet">

<g transform="translate(0.000000,600.000000) scale(0.100000,-0.100000)"
fill="#000000" stroke="none">
<path d="M2682 5520 c-39 -9 -71 -36 -83 -69 -20 -50 25 -118 114 -170 47 -29
67 -57 67 -98 0 -79 -120 -102 -150 -30 -8 18 -9 14 -7 -18 l2 -40 55 -3 c90
-4 140 39 140 122 0 43 -27 77 -103 128 -73 49 -86 64 -87 99 0 35 29 59 71
59 38 0 50 -6 68 -35 11 -18 12 -16 7 14 -4 19 -7 36 -9 37 -8 9 -57 11 -85 4z"/>
<path d="M2868 5458 c8 -8 12 -52 12 -132 0 -77 5 -130 13 -146 34 -68 141
-92 208 -47 52 35 63 67 67 197 3 91 7 118 20 128 13 10 7 12 -39 11 -30 -1
-46 -3 -36 -6 15 -4 17 -19 17 -129 0 -137 -10 -172 -55 -192 -63 -29 -126 -1
-146 67 -16 55 -8 239 11 251 11 7 1 10 -34 10 -39 0 -47 -3 -38 -12z"/>
<path d="M3265 5446 c19 -13 19 -17 -3 -162 -15 -107 -26 -152 -38 -161 -14
-10 -10 -13 22 -18 22 -4 48 -9 59 -11 18 -5 18 -4 3 6 -12 7 -18 23 -18 46 0
33 25 216 35 262 13 56 115 -4 115 -67 0 -36 -28 -68 -67 -77 -47 -10 -49 -12
-11 -13 70 -2 118 40 118 103 0 60 -29 79 -144 95 -96 14 -94 14 -71 -3z"/>
<path d="M3558 5404 c6 -3 12 -15 12 -27 0 -32 -69 -279 -82 -294 -14 -17 -17
-16 75 -42 85 -25 101 -24 110 8 5 19 3 20 -15 7 -21 -15 -81 -7 -101 13 -12
12 7 128 23 145 13 13 81 -14 89 -37 7 -19 9 -18 18 10 l11 31 -49 6 c-29 4
-52 13 -55 21 -3 8 2 39 11 70 15 52 18 56 40 51 52 -13 75 -26 76 -43 0 -15
3 -14 11 5 15 30 7 36 -72 56 -87 21 -118 27 -102 20z"/>
<path d="M2180 5339 c-48 -19 -88 -59 -105 -104 -45 -116 23 -239 138 -252
161 -18 275 137 205 277 -33 65 -76 90 -152 89 -34 0 -72 -5 -86 -10z m120
-24 c62 -32 110 -134 96 -206 -3 -20 -19 -48 -36 -64 -24 -23 -41 -30 -88 -33
-55 -4 -61 -2 -97 29 -97 86 -99 225 -4 272 42 21 91 22 129 2z"/>
<path d="M3836 5312 c8 -27 -105 -292 -127 -301 -14 -5 -4 -12 37 -28 52 -21
55 -21 39 -3 -16 18 -16 22 1 71 21 57 29 64 65 50 21 -7 30 -24 48 -88 26
-88 52 -123 124 -159 42 -22 46 -23 36 -6 -11 17 -2 39 61 156 58 106 79 136
95 136 15 0 10 6 -20 25 -48 30 -55 30 -48 7 4 -18 -82 -186 -130 -256 -19
-27 -21 -27 -33 -11 -14 19 -68 175 -63 179 2 1 20 12 40 24 41 25 64 70 55
106 -7 30 -54 66 -116 91 -25 9 -50 19 -57 22 -7 3 -10 -2 -7 -15z m112 -55
c40 -37 24 -119 -28 -147 -24 -13 -90 12 -90 33 0 16 39 116 52 134 11 14 35
7 66 -20z"/>
<path d="M1893 5214 c-114 -47 -174 -134 -154 -224 11 -50 25 -73 65 -108 61
-53 136 -55 233 -6 78 40 86 52 69 100 l-15 39 0 -36 c-1 -21 -8 -42 -18 -51
-75 -66 -188 -64 -249 4 -84 91 -68 189 37 242 64 32 92 33 119 4 11 -12 20
-19 20 -15 0 12 -34 77 -39 77 -3 -1 -34 -12 -68 -26z"/>
<path d="M1580 5020 c-36 -24 -40 -30 -23 -30 30 0 196 -234 190 -267 -5 -25
-3 -24 58 20 22 16 31 26 19 23 -25 -8 -36 4 -133 142 -49 70 -71 110 -68 123
3 10 4 19 4 19 -1 0 -22 -14 -47 -30z"/>
<path d="M4271 5039 c-72 -29 -120 -97 -121 -171 0 -52 16 -87 58 -131 106
-109 278 -66 322 79 40 133 -126 276 -259 223z m132 -23 c89 -37 115 -138 57
-229 -35 -55 -82 -87 -128 -87 -63 0 -124 49 -137 111 -15 68 43 176 109 205
40 17 59 17 99 0z"/>
<path d="M2826 4978 c-853 -75 -1572 -708 -1755 -1546 -64 -293 -59 -622 15
-917 61 -240 181 -492 333 -695 66 -89 265 -296 303 -316 15 -8 49 -14 75 -14
90 0 153 63 153 153 0 61 -18 96 -74 142 -57 47 -176 184 -244 283 -149 217
-253 498 -282 764 -65 609 218 1212 730 1556 480 322 1093 370 1627 127 l76
-35 153 87 c84 49 154 91 154 94 0 3 -44 30 -97 61 -252 146 -532 232 -833
258 -131 11 -193 11 -334 -2z"/>
<path d="M1439 4913 c-18 -20 -26 -31 -16 -23 17 12 27 5 115 -84 l97 -98
-120 6 c-66 4 -160 9 -209 13 l-90 6 25 -30 c13 -17 66 -76 117 -132 62 -68
92 -108 88 -118 -4 -8 9 -3 28 13 40 34 44 44 15 37 -17 -5 -38 12 -104 83
-46 49 -82 90 -80 92 2 2 88 -1 190 -7 102 -6 190 -9 196 -6 5 4 -42 63 -105
132 -68 74 -112 131 -109 139 8 22 -1 17 -38 -23z"/>
<path d="M4656 4824 c4 -14 -23 -46 -103 -126 -59 -58 -116 -108 -126 -110
-15 -2 -10 -10 24 -43 28 -27 38 -33 30 -17 -11 20 -7 27 33 70 l45 47 26 -25
c25 -25 25 -28 15 -95 -15 -104 -13 -112 26 -153 28 -30 32 -32 18 -9 -14 24
-15 40 -8 120 l9 92 40 6 c56 7 81 24 94 60 8 23 7 38 -3 62 -16 38 -127 150
-120 121z m74 -86 c27 -45 25 -61 -11 -103 -44 -50 -87 -48 -129 8 -12 16 -8
24 41 73 29 29 59 54 66 54 7 0 22 -15 33 -32z"/>
<path d="M1118 4603 c-87 -91 -113 -167 -83 -239 21 -51 51 -82 100 -105 79
-37 151 -14 228 71 61 68 68 94 33 128 l-26 27 12 -33 c11 -28 10 -37 -7 -68
-48 -89 -154 -120 -240 -69 -85 49 -106 122 -60 201 35 59 77 88 117 80 l32
-6 -24 25 c-13 14 -29 25 -35 25 -6 0 -27 -17 -47 -37z"/>
<path d="M4192 4483 c-11 -48 -28 -125 -38 -170 l-17 -82 68 -73 c388 -417
542 -962 424 -1507 -69 -315 -228 -602 -467 -837 -92 -92 -104 -110 -104 -170
0 -87 67 -154 154 -154 27 0 61 6 76 14 34 18 223 211 283 291 185 241 311
518 376 822 26 120 27 143 27 388 1 247 -1 266 -27 390 -41 188 -90 329 -179
505 -84 166 -158 277 -282 419 -67 77 -241 240 -265 249 -5 1 -17 -37 -29 -85z"/>
<path d="M3718 4326 c-203 -117 -371 -215 -374 -219 -8 -8 -66 -1318 -59
-1325 14 -14 372 133 452 186 9 6 171 702 329 1417 13 61 26 120 29 133 3 12
2 22 -2 21 -5 0 -173 -96 -375 -213z"/>
<path d="M2869 4520 c-745 -71 -1329 -667 -1378 -1405 -8 -131 1 -300 24 -410
49 -239 184 -521 316 -657 38 -41 51 -48 83 -48 78 0 133 58 123 129 -3 23
-27 67 -66 121 -165 229 -243 467 -244 745 -1 77 4 172 11 211 30 181 103 363
210 524 68 103 220 256 322 327 151 103 345 183 520 214 118 21 354 17 477 -9
l102 -22 123 71 c68 40 125 74 128 76 9 8 -27 24 -145 62 -194 63 -416 89
-606 71z"/>
<path d="M4879 4422 c-74 -39 -111 -93 -117 -172 -4 -52 0 -69 26 -123 28 -56
85 -128 101 -127 3 1 22 10 41 20 30 17 31 19 8 14 -46 -10 -84 19 -118 91
-50 104 1 220 120 274 57 26 74 26 126 0 48 -23 98 -92 109 -149 5 -28 2 -42
-15 -63 -26 -33 -23 -33 28 -4 l41 23 -34 71 c-77 158 -191 211 -316 145z"/>
<path d="M821 4303 c1 -57 1 -57 10 -20 5 21 14 47 19 58 9 16 7 19 -10 19
-18 0 -20 -6 -19 -57z"/>
<path d="M873 4248 c-36 -62 -46 -85 -32 -77 16 8 42 -3 151 -68 72 -43 133
-86 136 -95 3 -12 19 7 54 64 27 44 47 87 44 94 -3 7 -15 18 -28 25 -19 9 -21
9 -10 -2 6 -7 12 -22 12 -32 0 -24 -30 -75 -48 -82 -14 -5 -116 47 -127 65 -8
13 37 80 54 80 11 0 11 3 1 15 -19 23 -27 19 -51 -31 -13 -25 -26 -47 -29 -49
-5 -3 -95 48 -113 64 -13 12 51 91 68 85 22 -9 18 2 -7 18 -22 14 -24 13 -75
-74z"/>
<path d="M701 4052 c-19 -48 -47 -115 -63 -149 -31 -65 -30 -76 3 -94 19 -9
19 -9 10 10 -9 15 -6 32 10 75 11 31 25 56 30 56 11 0 162 -63 272 -112 51
-24 67 -36 67 -52 0 -21 30 34 45 85 7 23 6 23 -7 5 -18 -23 -17 -23 -220 62
-90 37 -138 62 -138 72 0 29 45 94 69 100 l24 5 -27 13 c-15 6 -30 12 -34 12
-4 0 -22 -40 -41 -88z"/>
<path d="M5035 4051 c-48 -22 -69 -44 -90 -94 -20 -49 -19 -93 6 -147 25 -56
44 -77 91 -101 104 -53 243 14 264 126 7 41 -18 132 -48 170 -47 60 -147 81
-223 46z m182 -41 c71 -43 84 -151 27 -212 -62 -66 -175 -89 -228 -47 -89 70
-66 202 46 258 54 26 113 27 155 1z"/>
<path d="M4081 3993 c-6 -32 -20 -95 -30 -140 l-19 -82 34 -47 c65 -91 153
-282 178 -387 l7 -29 -28 20 c-31 22 -108 62 -119 62 -4 0 11 -16 33 -35 106
-91 93 -205 -39 -335 -139 -136 -421 -276 -720 -356 l-108 -29 0 -55 c0 -30
-3 -118 -7 -196 l-6 -141 62 -7 c35 -4 104 -18 154 -30 51 -13 93 -22 95 -21
2 2 27 108 56 237 48 211 55 234 77 245 13 7 77 37 142 67 193 90 365 217 430
316 l16 25 0 -46 c1 -86 -20 -249 -44 -342 -43 -166 -114 -312 -224 -461 -43
-58 -51 -75 -51 -113 0 -38 5 -50 34 -79 29 -29 41 -34 80 -34 60 0 96 32 181
159 109 164 188 351 231 551 15 68 19 128 19 295 0 183 -3 223 -23 314 -44
194 -120 375 -227 536 -54 81 -150 195 -164 195 -5 0 -14 -26 -20 -57z"/>
<path d="M2875 3840 c-170 -99 -313 -181 -316 -182 -4 -2 25 -222 65 -490 l71
-488 47 0 c58 0 250 26 338 46 l66 15 22 547 c13 301 26 589 29 640 3 52 2 92
-3 92 -5 0 -148 -81 -319 -180z"/>
<path d="M5034 3621 c3 -18 6 -41 6 -49 0 -13 3 -12 14 3 10 15 37 21 122 31
60 7 110 11 111 10 1 -1 -48 -42 -109 -90 -83 -66 -108 -90 -97 -97 8 -4 71
-22 139 -39 69 -17 126 -33 128 -35 2 -2 -51 -20 -117 -41 -130 -40 -128 -38
-114 -105 l7 -34 6 30 c5 29 11 32 163 84 86 29 157 56 157 60 0 3 -70 24
-155 45 -108 27 -152 42 -146 50 5 6 61 52 125 101 63 50 115 94 116 99 0 5
-33 6 -77 2 -216 -18 -265 -19 -275 -5 -7 10 -8 4 -4 -20z"/>
<path d="M709 3600 c-83 -15 -139 -92 -139 -194 0 -110 74 -186 181 -186 139
0 229 160 161 286 -12 22 -78 84 -90 84 -4 0 -23 4 -42 8 -19 5 -51 5 -71 2z
m127 -66 c141 -67 82 -264 -80 -264 -103 0 -170 55 -170 141 0 87 58 139 157
139 34 0 74 -7 93 -16z"/>
<path d="M2163 3431 c-139 -80 -253 -150 -253 -156 0 -29 176 -454 199 -478
34 -38 83 -62 173 -87 69 -19 267 -45 275 -36 2 2 -25 205 -61 450 -37 246
-66 449 -66 451 0 11 -24 -2 -267 -144z"/>
<path d="M5453 3211 c-10 -16 -27 -19 -130 -23 -132 -4 -172 -18 -198 -68 -21
-41 -19 -118 5 -157 32 -53 64 -63 199 -63 104 0 121 -2 130 -17 8 -14 10 -5
10 37 0 30 -3 48 -6 40 -3 -8 -11 -18 -17 -22 -17 -12 -219 -9 -254 3 -39 13
-62 48 -62 94 0 85 38 105 198 105 78 0 122 -4 130 -12 9 -9 12 1 12 45 0 31
-1 57 -3 57 -1 0 -8 -9 -14 -19z"/>
<path d="M538 3073 c-2 -82 -4 -148 -3 -149 0 -1 13 -4 30 -8 28 -7 29 -7 12
12 -11 12 -17 35 -17 71 l0 52 153 -7 c83 -4 157 -11 164 -16 8 -6 12 5 15 42
2 39 0 47 -8 35 -9 -12 -39 -15 -169 -15 l-158 0 5 52 c4 34 12 56 24 65 16
12 15 13 -13 13 l-31 0 -4 -147z"/>
<path d="M538 2845 c4 -41 5 -42 21 -26 13 13 48 21 128 30 94 11 115 10 146
-2 42 -18 57 -42 57 -92 0 -78 -33 -99 -184 -116 -87 -10 -112 -10 -128 0 -18
11 -20 11 -14 -4 3 -9 6 -35 6 -58 1 -36 2 -39 12 -22 6 11 12 21 12 22 1 1
44 7 96 13 133 16 165 26 194 61 21 25 26 41 26 87 0 69 -25 115 -75 139 -32
15 -48 16 -157 5 -74 -8 -125 -9 -132 -3 -8 7 -10 -3 -8 -34z"/>
<path d="M5110 2828 c0 -13 -3 -34 -5 -48 -5 -24 -5 -24 4 -2 7 14 19 22 33
22 34 -1 229 -28 234 -32 2 -3 -61 -50 -140 -107 -207 -147 -204 -134 -34
-160 197 -30 198 -30 199 -49 1 -25 17 17 18 47 1 18 -2 21 -11 13 -14 -11
-258 16 -258 28 0 4 72 58 161 120 108 76 156 116 147 120 -7 4 -80 18 -163
30 -82 12 -154 26 -159 31 -16 15 -26 10 -26 -13z"/>
<path d="M2145 2671 c25 -79 206 -526 212 -524 4 1 40 14 78 29 39 14 97 31
130 38 41 8 59 17 58 27 -1 8 -12 85 -24 172 l-23 157 -36 0 c-105 0 -293 50
-363 96 -36 24 -38 24 -32 5z"/>
<path d="M3045 2594 c-44 -8 -136 -18 -204 -23 -68 -6 -124 -11 -126 -13 -1
-2 39 -283 44 -306 2 -5 356 11 362 17 9 9 20 341 11 340 -4 -1 -43 -8 -87
-15z"/>
<path d="M597 2523 c-12 -3 -16 -10 -12 -21 3 -10 21 -74 38 -144 32 -128 32
-128 62 -128 29 0 29 0 8 15 -17 12 -50 101 -41 110 2 2 68 20 147 41 108 28
147 35 160 27 16 -10 16 -7 2 50 -12 45 -17 54 -19 34 -2 -19 -11 -28 -35 -36
-74 -24 -269 -72 -273 -68 -3 2 -7 28 -11 57 -4 39 -3 54 8 61 12 7 12 9 -1 8
-8 -1 -23 -3 -33 -6z"/>
<path d="M5036 2442 c-3 -15 -9 -38 -12 -52 -7 -22 -6 -24 9 -12 17 14 11 15
255 -55 35 -10 56 -22 61 -34 5 -16 10 -10 23 30 15 48 15 50 -2 41 -25 -13
-288 63 -311 90 -16 19 -17 19 -23 -8z"/>
<path d="M1000 2302 c0 -26 -9 -31 -158 -87 -124 -48 -147 -52 -156 -32 -11
24 7 -39 19 -68 8 -16 14 -23 14 -14 1 19 18 27 176 86 90 33 124 42 136 34
14 -8 14 -3 -3 42 -23 61 -28 68 -28 39z"/>
<path d="M4961 2212 c-12 -31 -31 -76 -42 -99 -14 -32 -15 -43 -6 -43 7 0 30
-17 51 -39 l38 -38 -26 -52 c-25 -48 -29 -51 -64 -51 -20 0 -51 4 -68 9 -31 9
-33 7 -84 -68 -30 -42 -46 -70 -37 -63 18 15 48 3 102 -42 l30 -24 -23 -25
c-21 -22 -33 -25 -111 -29 -98 -4 -116 -14 -180 -91 -19 -23 -28 -36 -21 -29
8 6 17 12 21 12 10 0 83 -62 167 -142 56 -53 72 -75 69 -90 -5 -19 -5 -19 15
-1 27 24 68 83 46 65 -14 -11 -27 -4 -95 56 -102 91 -158 150 -150 158 10 11
88 23 148 24 57 0 57 0 63 -34 10 -51 47 -86 93 -86 32 0 45 7 74 38 62 65
115 146 74 112 -12 -10 -33 2 -117 64 -154 114 -152 112 -145 130 8 21 43 21
229 -1 81 -9 151 -14 154 -10 4 3 -42 64 -101 134 -59 70 -112 137 -117 148
-13 29 6 75 31 75 31 0 281 -102 281 -114 0 -6 -11 -29 -23 -51 -16 -27 -30
-39 -43 -38 -19 2 -19 1 0 -13 11 -8 25 -14 31 -14 8 0 104 214 118 263 1 5
-7 15 -19 23 -19 13 -20 13 -16 -14 2 -16 -3 -45 -12 -66 -18 -43 -4 -45 -172
22 -82 33 -122 55 -130 70 -10 20 -12 17 -33 -36z m146 -348 c-4 -4 -130 15
-135 21 -2 2 7 22 19 45 l24 42 48 -52 c26 -29 46 -54 44 -56z m-139 -244 c17
-13 32 -27 32 -30 0 -4 -11 -19 -25 -34 -34 -37 -83 -36 -124 3 -38 36 -40 69
-6 105 l26 28 32 -24 c18 -14 47 -35 65 -48z"/>
<path d="M1079 2100 c-3 -21 -26 -36 -134 -92 -71 -37 -133 -67 -136 -68 -4 0
-16 21 -27 47 -15 35 -18 52 -10 66 9 17 7 17 -14 6 -13 -6 -24 -13 -26 -14
-2 -2 103 -223 125 -264 1 -2 15 0 30 4 27 7 27 7 6 16 -18 6 -63 73 -63 94 0
12 264 136 281 132 24 -6 23 -2 -5 53 -22 41 -24 43 -27 20z"/>
<path d="M1118 1885 c-40 -22 -52 -50 -58 -137 -9 -115 -51 -150 -104 -87 -28
33 -32 50 -15 80 10 19 9 20 -11 9 -30 -16 -34 -34 -16 -68 30 -58 89 -86 141
-66 26 10 46 61 52 137 7 76 31 117 72 117 46 0 90 -97 59 -128 -15 -15 -3
-16 23 -2 23 13 24 41 5 78 -34 66 -98 95 -148 67z"/>
<path d="M1181 1619 c-75 -68 -129 -108 -137 -105 -8 3 0 -12 17 -34 36 -45
45 -51 28 -18 -11 20 -4 29 82 110 52 48 98 87 103 88 4 0 6 -15 3 -32 -10
-54 -30 -345 -25 -359 3 -8 37 17 94 67 150 134 166 145 180 140 8 -3 0 12
-17 34 -18 22 -33 40 -34 40 -1 0 0 -11 2 -24 4 -21 -10 -39 -82 -108 -48 -46
-90 -84 -94 -86 -3 -1 -1 62 6 140 14 170 16 258 6 257 -5 0 -64 -50 -132
-110z"/>
<path d="M1578 1433 c14 -25 11 -29 -131 -190 -62 -71 -105 -113 -118 -113
-15 0 -11 -7 20 -35 21 -19 40 -35 43 -35 2 0 4 11 3 24 0 33 217 286 246 286
26 0 19 10 -33 51 -31 25 -38 28 -30 12z"/>
<path d="M4426 1435 c-49 -17 -112 -79 -127 -123 -27 -81 11 -184 83 -227 102
-60 261 22 283 146 15 85 -47 185 -130 208 -50 14 -61 13 -109 -4z m115 -54
c84 -53 119 -146 80 -209 -45 -71 -137 -93 -202 -49 -18 12 -48 42 -66 65
-101 132 47 283 188 193z"/>
<path d="M2730 1430 c-199 -21 -441 -73 -605 -130 -97 -34 -341 -147 -334
-155 3 -2 47 9 98 25 204 64 511 119 795 141 191 15 635 6 816 -16 236 -29
528 -90 669 -140 86 -30 53 -4 -70 54 -205 98 -442 168 -701 207 -121 18 -542
27 -668 14z"/>
<path d="M2965 1018 c-68 -24 -113 -97 -101 -163 13 -68 68 -109 186 -140 95
-25 120 -40 120 -75 0 -43 -40 -70 -105 -70 -59 0 -99 27 -111 75 -6 26 -8 26
-58 20 -28 -4 -52 -8 -53 -9 -1 -1 2 -18 7 -37 28 -100 94 -143 220 -142 138
2 210 60 210 171 0 84 -56 136 -178 167 -105 26 -132 40 -132 69 0 34 35 56
90 56 48 0 78 -21 94 -64 4 -11 12 -16 22 -12 9 3 32 6 51 6 35 0 36 0 30 37
-8 45 -59 100 -107 113 -45 13 -146 11 -185 -2z"/>
<path d="M3512 1017 c-98 -36 -156 -132 -156 -262 0 -97 15 -145 62 -197 52
-58 104 -81 182 -81 97 0 163 39 204 120 9 18 16 36 16 42 0 7 -80 41 -97 41
-1 0 -9 -15 -17 -33 -43 -103 -179 -103 -222 -1 -20 47 -18 177 3 221 37 78
139 96 194 35 15 -16 28 -35 30 -41 4 -10 16 -10 54 0 28 6 51 13 53 14 7 6
-22 63 -46 89 -57 60 -173 84 -260 53z"/>
<path d="M2200 749 l0 -270 53 3 52 3 3 268 2 267 -55 0 -55 0 0 -271z"/>
<path d="M2370 975 l0 -45 80 0 80 0 0 -225 0 -225 55 0 55 0 0 225 0 225 80
0 80 0 0 45 0 45 -215 0 -215 0 0 -45z"/>
</g>
</svg>
